<svg id="Layer_1" data-name="Layer 1" xmlns="http://www.w3.org/2000/svg" viewBox="0 0 113 113"><defs><style>.cls-1{fill:#050505;fill-rule:evenodd;}</style></defs><path class="cls-1" d="M536.11,280.88v-1.82H517.27v.46H498.44v.25h-8.9v.41h8.9v.25h18.83v.45Zm-46.67.45-.06.4,8.79,1.39,0,.25,18.6,2.95.08-.45-.14.9,18.59,2.94.29-1.79L517,285l-.07.45-18.6-2.95,0,.25Zm-.34,1.51c0,.14-.08.27-.13.4l8.48,2.75.13-.39Zm-.57,1.45c-.06.13-.13.25-.19.37l8,4,.09-.18-.2.4L513,297.48l-.21.41,16.78,8.55.83-1.62-16.78-8.55-.21.4-16.78-8.55-.11.22Zm-.79,1.34-.24.33,7.22,5.25.23-.31-.37.52,15.23,11.06-.27.37,15.24,11.07,1.07-1.47-15.24-11.07-.54.74.27-.37-15.23-11.07-.15.2Zm-1,1.2a4,4,0,0,1-.29.29l6.32,6.32-.18.17,13.32,13.32-.33.32,13.32,13.32,1.29-1.29L506.88,306l-.32.33L493.24,293l-.17.18Zm-1.16,1-.33.24,5.24,7.22-.2.15,11.07,15.24L501,311l11.07,15.24,1.47-1.07-11.07-15.24-.37.27L491,295l-.2.14Zm-1.31.84-.36.19,4.05,8-.22.11,8.55,16.78-.41.21,8.55,16.78,1.63-.83-8.55-16.78-.41.21-8.55-16.78-.58.3.35-.19Zm-1.41.63-.4.13,2.76,8.48.19-.06L485,298l5.82,17.91-.43.14L496.2,334l1.73-.56-5.82-17.91-.86.28.42-.14-5.81-17.91-.24.07Zm-1.51.41-.4.06,1.39,8.8-.25,0,2.95,18.6-.45.07,2.94,18.6,1.8-.29L486.4,317l-.45.08L483,298.5l-.25,0Zm-1.55.16h-.41v8.89h-.25v18.83h-.46v18.84h1.82V317.64h-.45V298.81h-.25Zm-1.56-.07-.41-.06-1.39,8.76-.24,0-2.95,18.61.45.07-.9-.14-2.94,18.59,1.8.29,2.94-18.6-.45-.07,2.95-18.6-.25,0Zm-1.53-.32-.39-.12-2.74,8.42.39.13Zm-1.47-.55-.37-.19-4,7.88.18.1-.4-.21-8.55,16.78-.41-.21-8.55,16.78,1.63.83L463.32,314l-.41-.21L471.46,297l-.22-.11Zm-1.36-.78-.34-.24-5.18,7.14-.2-.14L457.1,310.18l-.37-.27-11.07,15.24,1.47,1.07L458.2,311l-.37-.26,11.07-15.24-.2-.15Zm-1.23-1-.29-.29-6.23,6.23L466,293l-13.31,13.32-.32-.33L439,319.28l1.29,1.29,13.31-13.32-.32-.32,13.32-13.32-.18-.17ZM471.6,286a2.85,2.85,0,0,1-.25-.33l-7.1,5.17.12.16-.27-.36-15.24,11.07-.26-.37-15.24,11.07,1.07,1.47,15.24-11.07-.27-.37,15.24-11.06-.15-.21Zm-.87-1.31c-.07-.12-.13-.24-.19-.36l-7.81,4-.11-.22-16.78,8.55-.21-.4-16.78,8.55.83,1.62,16.78-8.55-.21-.41L463,288.93l-.2-.4.09.18Zm-.65-1.44c-.05-.13-.09-.26-.13-.39l-8.32,2.7.06.2-.14-.44-17.91,5.82-.14-.43-17.91,5.82.56,1.73,17.91-5.82-.14-.43,17.91-5.82-.07-.24Zm-.42-1.53c0-.14-.05-.27-.07-.41L461,282.72l.07.4Zm-.17-1.58h-8.72v.25H441.94v.45H423.11v-1.82h18.83v.46h18.83v.25h8.72v.41Zm.08-1.58.06-.41L461,276.83l0,.2.07-.45-18.6-2.94.07-.45-18.6-2.95-.28,1.8,18.6,2.95.17-1.05-.1.6,18.6,2.94,0-.25Zm.33-1.56.12-.39L461.76,274l.07-.24-17.91-5.82.14-.43-17.91-5.82-.56,1.73,17.91,5.82.28-.86-.14.43,17.91,5.82.14-.43-.06.19Zm.57-1.49c.06-.12.12-.24.19-.36l-7.74-3.95-.05.09L463,271l-16.78-8.55.21-.4-16.78-8.56-.83,1.63,16.78,8.55.21-.41,16.78,8.55.11-.22Zm.8-1.37.24-.34-7-5.1-.16.22.31-.42L449.4,257.47l.27-.37L434.43,246l-1.07,1.48,15.24,11.07.27-.38,15.23,11.07.15-.2Zm1-1.24.29-.29-6.14-6.14.18-.17L453.29,253l.32-.32L440.3,239.38,439,240.67,452.33,254l.32-.33L466,267l.18-.18Zm1.19-1.06.33-.24-5.1-7-.17.12.37-.27-11.07-15.24.37-.26-11.07-15.24-1.47,1.07L456.73,250l.85-.62-.48.35L468.17,265l.2-.15Zm1.34-.85.37-.19-3.94-7.74.22-.11-8.55-16.78.41-.21-8.55-16.78-1.63.83,8.55,16.78.41-.21,8.55,16.78.4-.2-.18.09Zm1.47-.64.38-.12L474,262l-.05,0,.29-.09L468.4,244l.43-.14L463,226l-1.73.56,5.82,17.92.87-.29-.44.15,5.82,17.91.24-.08Zm1.54-.39.4-.06-1.36-8.6.25,0-2.95-18.6.45-.07L471.66,224l-1.8.29,2.95,18.6.45-.07,2.95,18.6.45-.08-.21,0Zm1.58-.14h.41v-8.71h.25V242.31h.45V223.48h-1.82v18.83h.46v18.84h.25ZM481,270l.41.06,1.36-8.62-.4-.07Zm1.55.35.39.13,2.7-8.32.24.08,5.81-17.91-.42-.15.86.29,5.82-17.92L496.2,226l-5.82,17.91.43.14L485,261.93l.43.14-.19-.07Zm1.46.59.36.19,4-7.81-.36-.19Zm1.35.81.33.25,5.17-7.11.2.15,11.07-15.24.37.27,11.07-15.24-1.47-1.07L501,249l.36.26L490.3,264.47l.37.27-.16-.12Zm1.21,1,.29.29,6.23-6.23.17.18,13.32-13.32.32.33,13.32-13.32-1.29-1.29L505.59,252.7l.33.32L492.6,266.34l.18.17Zm1,1.19.24.33,7.14-5.19.14.2,15.24-11.07.27.37,15.23-11.07L524.77,246,509.54,257.1l.26.37-15.23,11.06.15.21Zm.83,1.33c.07.12.13.24.19.36l7.88-4-.07-.13.18.35,16.78-8.55.21.41,16.78-8.55-.83-1.63-16.78,8.56.21.4L496.18,271l.11.22Zm.62,1.44.12.39,8.43-2.74-.13-.39Zm.38,1.51.06.41,8.77-1.39-.05-.26.09.51,18.6-2.94.07.44,18.6-2.94-.29-1.8-18.59,2.95.14.9-.08-.45-18.6,2.94,0,.25Zm8.25,7.15,17.91,5.82.14-.43,17.91,5.82-.56,1.73-17.91-5.82.14-.43-17.91-5.82Zm-.28-11.64,17.91-5.82-.14-.43,17.91-5.82.56,1.73-17.91,5.82-.28-.86.14.43-17.91,5.82ZM474.22,298l-5.82,17.91-.43-.14.86.28L463,334l-1.73-.56,5.82-17.91.43.14,5.82-17.91Zm-50.56-10.11,18.6-2.95.07.45,18.6-2.95.14.9-18.6,2.95.07.45-18.6,2.94Zm72.64-41.71L487.75,263l.81.41,8.55-16.78.41.21,8.55-16.78-1.63-.83L495.89,246Zm-11.71-3.58,3-18.6,1.8.28-2.95,18.6-.45-.07L483,261.44l-.9-.14L485,242.7Z" transform="translate(-423.11 -223.48)"/></svg>